Patient4_TMGait_0pt3_01_right_19_EMG.mot
version=1
nRows=19
nColumns=33
inDegrees=no
endheader
time	1LAddLong	2LGlutMax	3LGlutMed	4LIliopsoas	5LSemiMemb	6LBicFemLong	7LRecFem	8LVastMed	9LVastLat	10LGasMed	11LTibAnt	12lTibPost	13LPeroneusLong	14LSol	15LExtDigLong	16LFlexDigLong	17RAddLong	18RGlutMax	19RGlutMed	20RIliopsoas	21RSemiMemb	22RBicFemLong	23RRecFem	24RVastMed	25RVastLat	26RGasMed	27RTibAnt	28RTibPost	29RPeroneusLong	30RSol	31RExtDigLong	32RFlexDigLong
35.205	-0.00061	-0.54535	-0.01236	-0.010986	0.027161	0.003662	0.088501	0.00473	0.036621	-0.015106	-0.006409	-0.002747	-0.031586	-0.011597	-0.001221	0.007782	-0.016785	-0.022278	0.25757	-0.029144	-0.121	-0.058441	-0.05722	-0.18875	0.097961	-0.001831	0.69992	-0.007019	0.055389	-0.17349	-0.001831	-0.011139
35.206	-0.000763	-0.53055	-0.019531	-0.000458	0.019073	0.021057	0.088043	0.006561	0.057983	-0.010376	-0.004578	0.004272	-0.041809	-0.007019	-0.007782	0.007782	0.019684	-0.002136	0.34454	-0.050507	-0.096741	-0.046082	0.014191	-0.09964	0.074005	-0.024872	0.61386	-0.003204	-0.000305	-0.24521	-0.002747	0.002747
35.207	-0.002441	-0.50919	-0.008087	0.018005	0.014038	0.037537	0.078125	0.002289	0.047607	-0.001984	-0.002441	0.00061	-0.035553	-0.013733	0.01236	0.00885	0.037231	0.005951	-0.041199	-0.059814	-0.060883	-0.035553	-0.052948	-0.12131	0.00061	-0.043945	0.37781	-0.002136	-0.036316	-0.067291	-0.006256	-0.000763
35.208	-0.004883	-0.47516	0.003662	0.021973	0.021667	0.019684	0.064545	0.006866	0.080719	-0.005493	0.000305	0.003967	-0.044556	-0.02182	0.000305	0.005646	0.056763	0.00824	-0.48294	-0.014954	-0.00473	-0.085754	-0.17227	-0.18555	-0.045929	-0.009003	-0.19745	0.005493	-0.057983	0.054016	-0.003357	-0.004883
35.209	-0.00351	-0.49484	0.030518	0.012054	0.000153	-0.005035	0.070953	0.001984	0.079803	-0.00946	-0.01236	0.007629	-0.042267	-0.030518	0.001984	0.005188	0.075684	0.058136	-0.40771	0.023956	0.074768	-0.035248	-0.090485	-0.16647	-0.099335	0.008392	-0.63156	0.00351	-0.063629	-0.007477	-0.003815	-0.009766
35.21	-0.002899	-0.55176	0.06134	0.006104	-0.001373	-0.025635	0.084229	-0.000763	0.06134	-0.006561	-0.055389	0.008698	-0.048523	-0.010223	-0.000458	0.010986	0.050812	0.013733	0.07843	-0.070038	0.027466	0.1004	-0.12695	-0.13138	0.019989	0.007935	-0.42114	-0.006714	-0.075684	-0.057678	-0.00412	0.004883
35.211	-0.001678	-0.56503	0.036926	0.005341	0.001526	-0.057983	0.077667	0.001526	0.045776	0.003815	-0.062256	0.000153	-0.047913	-0.014954	0.010834	0.007324	0.028687	-0.005035	0.59265	-0.12665	-0.46753	0.16663	-0.18646	-0.10986	0.089264	0.013275	-0.094604	-0.002594	0.20966	-0.13748	-0.003052	0.004883
35.212	0.009308	-0.55466	-0.010223	0.01709	0.010986	-0.033264	0.087891	0.005188	0.026398	0.000305	-0.068054	-0.001678	-0.045624	-0.010986	0.002594	0.006104	0.04303	-0.10971	0.38376	-0.072479	-0.75821	0.066986	-0.048676	0.059357	0.11505	0.01358	-0.36575	-0.001526	0.40649	-0.16541	-0.007172	0.009766
35.213	-0.001678	-0.55618	-0.026703	-0.002136	0.02121	0.004578	0.077667	0.003815	0.022583	-0.004883	-0.06546	0.002747	-0.042267	-0.006561	-0.015106	0.007629	0.028076	-0.089569	0.30991	-0.016327	-0.53085	-0.011292	-0.020599	0.21851	0.077972	0.00473	-0.77743	-0.000916	-0.062866	-0.1471	-0.002441	0.002747
35.214	0.005798	-0.54642	-0.005493	-0.010986	0.02594	0.004578	0.082092	0.010681	0.013885	-0.006256	-0.010529	0.000153	-0.00412	-0.019684	-0.054626	0.004272	-0.06012	0.061646	-0.080109	0.068817	0.5304	-0.084229	-0.17242	0.33386	0.006714	0.005646	-0.55328	-0.014801	0.41412	-0.19348	-0.003662	-0.004883
35.215	0.001221	-0.50217	0.020142	-0.00946	0.023346	0.07431	0.077515	0.004272	0.009613	-0.016174	0.10727	0.008087	-0.012817	-0.000305	0.47089	0.01297	-0.055542	0.040588	-0.022583	0.017395	0.46081	-0.2504	-0.046234	0.25467	-0.086365	-0.000458	-0.3421	-0.008698	0.25879	-0.21652	-0.006409	-0.003357
35.216	0.000305	-0.49774	0.050354	-0.012817	0.030212	0.061035	0.078888	0.003052	0.00473	-0.000916	0.054321	0.006714	-0.038605	0.014954	0.12329	0.006256	-0.039063	-0.13489	0.26916	-0.12924	0.15228	-0.24323	-0.002594	0.21591	-0.067291	-0.002289	-0.39124	-0.012054	-0.12772	-0.12299	-0.007324	-0.007019
35.217	-0.000153	-0.51727	0.042725	-0.007324	0.002441	0.051727	0.074005	0.00061	-0.000916	0.009003	-0.027313	0.007629	-0.015106	0.021057	0.42618	0.006409	-0.026245	-0.15442	0.54336	-0.13306	0.073547	-0.17761	0.010376	0.12039	0.016632	-0.001221	-0.22766	-0.00885	-0.16327	-0.094757	-0.004425	-0.00946
35.218	-0.002899	-0.4837	0.045319	-0.012512	-0.005341	0.056152	0.08255	0.021667	0.000305	0.00061	0.02182	0.011444	-0.022736	0.037079	-0.009155	0.007629	0.007782	-0.13596	0.62515	0.011597	0.045471	-0.1799	0.098114	0.15152	0.056305	-0.007935	0.081787	0.014038	-0.083008	0.071106	-0.001068	-0.006409
35.219	0.000153	-0.50827	0.041046	-0.024872	-0.005341	0.065002	0.074768	0.00885	0.003204	-0.005188	0.083923	0.007324	-0.051575	0.05127	-0.36301	0.009003	0.018463	-0.32074	0.30136	0.20218	-0.066833	-0.20966	0.035706	0.20142	0.056458	-0.001221	0.25207	-0.00061	0.04715	0.14435	-0.013428	-0.003052
35.22	0.000763	-0.48645	0.050049	-0.006866	0.020447	0.067444	0.083771	0.011139	0.018768	-0.00412	0.021057	-0.002594	-0.046997	0.060577	-0.16937	0.013885	0.028992	-0.48782	-0.019073	0.21622	-0.19226	-0.11307	0.007629	0.14572	0.14145	0.004425	0.14145	0	0.14175	0.068054	-0.006866	-0.007477
35.221	0.001678	-0.47669	0.054321	0.018005	0.020752	0.071106	0.077362	0.00412	0.043793	0.007477	-0.15396	0.004272	-0.025787	0.060425	-0.25131	0.016937	0.037079	-0.53085	-0.29633	0.072632	-0.31769	-0.069275	-0.070953	0.029449	0.10223	-0.005493	0.09903	0	0.016174	0.13977	-0.006714	-0.010986
35.222	-0.001221	-0.46097	0.045929	0.019989	0.018616	0.040131	0.07309	0.005341	0.048981	0.011597	-0.16785	0.007019	-0.03418	0.076904	-0.084991	0.011292	0.005951	-0.63385	-0.4512	0.004578	-0.012207	-0.066986	-0.050201	0.014343	0.012207	-0.008545	0.014648	-0.002594	-0.071259	0.15106	-0.005188	-0.003357
35.223	0.007477	-0.40314	0.010071	0.022888	-0.007935	0.002594	0.064087	-0.000458	0.050659	-0.00885	-0.074615	0.005341	0.010071	0.085449	-0.22232	0.016022	-0.062866	-0.74127	-0.62943	0.032501	0.15259	0.016022	-0.049286	0.008392	0.026855	-0.010834	0.086517	-0.003204	-0.13367	-0.041046	-0.001678	-0.006409
